<svg xmlns="http://www.w3.org/2000/svg" viewBox="0 0 96 96"><rect width="96" height="96" rx="22" fill="#33ccff"/><path d="M50 20c15 0 27 11 27 25 0 9-5 16-12 20-3 2-5 1-8 1H40c-4 0-7-1-10-3-2 3-6 4-9 3 2-2 3-5 3-8-2-4-2-8-2-13 0-14 13-25 28-25Z" fill="#fff" stroke="#0a2233" stroke-width="3.5" stroke-linejoin="round"/><circle cx="43" cy="40" r="3.2" fill="#0a2233"/><circle cx="59" cy="40" r="3.2" fill="#0a2233"/><path d="M41 50c4 6 16 6 20 0" stroke="#0a2233" stroke-width="3.5" fill="none" stroke-linecap="round"/><circle cx="36" cy="70" r="6" fill="#0a2233"/><circle cx="62" cy="70" r="6" fill="#0a2233"/></svg>
